<mxfile host="65bd71144e">
    <diagram id="KwPfDb_A-Gbgod_cHA8Y" name="Page-1">
        <mxGraphModel dx="644" dy="767" grid="1" gridSize="5" guides="1" tooltips="1" connect="1" arrows="1" fold="1" page="1" pageScale="1" pageWidth="1169" pageHeight="827" math="0" shadow="0">
            <root>
                <mxCell id="0"/>
                <mxCell id="1" parent="0"/>
            </root>
        </mxGraphModel>
    </diagram>
</mxfile>